<svg xmlns="http://www.w3.org/2000/svg" width="22.563" height="14.571" viewBox="0 0 22.563 14.571">
  <g id="Group_26300" data-name="Group 26300" transform="translate(-740.533 -98.886)">
    <g id="Icon_feather-align-left" data-name="Icon feather-align-left" transform="translate(742.621 91)">
      <path id="Path_1750" data-name="Path 1750" d="M19.725,15H4.5" transform="translate(0)" fill="none" stroke="#4f5e7b" stroke-linecap="round" stroke-linejoin="round" stroke-width="1.5"/>
      <path id="Path_1751" data-name="Path 1751" d="M19.725,9H4.5" fill="none" stroke="#4f5e7b" stroke-linecap="round" stroke-linejoin="round" stroke-width="1.5"/>
      <path id="Path_1752" data-name="Path 1752" d="M19.725,21H4.5" fill="none" stroke="#4f5e7b" stroke-linecap="round" stroke-linejoin="round" stroke-width="1.5"/>
    </g>
    <g id="Icon_feather-more-vertical" data-name="Icon feather-more-vertical" transform="translate(724.533 93.386)">
      <path id="Path_1653" data-name="Path 1653" d="M18.84,17.67a1.17,1.17,0,1,1-1.17-1.17A1.17,1.17,0,0,1,18.84,17.67Z" transform="translate(0 -4.885)" fill="#4f5e7b" stroke="#4f5e7b" stroke-linecap="round" stroke-linejoin="round" stroke-width="1"/>
      <path id="Path_1654" data-name="Path 1654" d="M18.84,7.17A1.17,1.17,0,1,1,17.67,6,1.17,1.17,0,0,1,18.84,7.17Z" fill="#4f5e7b" stroke="#4f5e7b" stroke-linecap="round" stroke-linejoin="round" stroke-width="1"/>
      <path id="Path_1655" data-name="Path 1655" d="M18.84,28.17A1.17,1.17,0,1,1,17.67,27,1.17,1.17,0,0,1,18.84,28.17Z" transform="translate(0 -9.769)" fill="#4f5e7b" stroke="#4f5e7b" stroke-linecap="round" stroke-linejoin="round" stroke-width="1"/>
    </g>
  </g>
</svg>
