<svg xmlns="http://www.w3.org/2000/svg" width="30.971" height="30.971" viewBox="0 0 30.971 30.971">
  <g id="Icon_awesome-highlighter" data-name="Icon awesome-highlighter" transform="translate(54.555 250.618) rotate(-135)">
    <path id="Path_11238" data-name="Path 11238" d="M191.737,126.078l4.181-2.151.067,4.4h-4.248Zm-.87,4.342h6.1l-.027,2.567,1.771.943a1.64,1.64,0,0,1,.865,1.549l-.193,2.439H188.4l-.193-2.446a1.642,1.642,0,0,1,.477-1.262,1.622,1.622,0,0,1,.39-.288l1.769-.94Zm-2.336,9.842h10.758l-.943,10.782a2.458,2.458,0,0,1-2.454,2.3h-4.005a2.459,2.459,0,0,1-2.455-2.306Z" fill="none" stroke="#4f5e7b" stroke-linecap="round" stroke-linejoin="round" stroke-width="1.5"/>
  </g>
</svg>
