<svg xmlns="http://www.w3.org/2000/svg" width="18.402" height="16.289" viewBox="0 0 18.402 16.289">
  <path id="Icon_awesome-quote-left" data-name="Icon awesome-quote-left" d="M15.317,9.645H12.676V7.532a2.115,2.115,0,0,1,2.113-2.113h.264a.79.79,0,0,0,.792-.792V3.042a.79.79,0,0,0-.792-.792h-.264A5.28,5.28,0,0,0,9.507,7.532v7.923a1.585,1.585,0,0,0,1.585,1.585h4.225A1.585,1.585,0,0,0,16.9,15.455V11.229A1.585,1.585,0,0,0,15.317,9.645Zm-9.507,0H3.169V7.532A2.115,2.115,0,0,1,5.282,5.419h.264a.79.79,0,0,0,.792-.792V3.042a.79.79,0,0,0-.792-.792H5.282A5.28,5.28,0,0,0,0,7.532v7.923a1.585,1.585,0,0,0,1.585,1.585H5.81a1.585,1.585,0,0,0,1.585-1.585V11.229A1.585,1.585,0,0,0,5.81,9.645Z" transform="translate(0.75 -1.5)" fill="none" stroke="#4f5e7b" stroke-width="1.5"/>
</svg>
