<svg id="Group_464" data-name="Group 464" xmlns="http://www.w3.org/2000/svg" width="20.634" height="20.639" viewBox="0 0 20.634 20.639">
  <g id="Group_438" data-name="Group 438" transform="translate(1.608 0)">
    <g id="Group_437" data-name="Group 437" transform="translate(0 0)">
      <path id="Path_1719" data-name="Path 1719" d="M58.026,9.658,51.446,3.1l1.727-1.725A.806.806,0,0,0,52.033.235L42.305,9.953a3.231,3.231,0,0,0-2.359,3.107.806.806,0,0,0,1.612,0,1.614,1.614,0,0,1,.88-1.436l6.82,6.8a3.229,3.229,0,0,0,4.559,0l4.21-4.2a3.225,3.225,0,0,0,0-4.562ZM56.888,13.08l-4.21,4.2a1.615,1.615,0,0,1-2.28,0l-5.851-5.831H53.49a.806.806,0,1,0,0-1.612H44.7l5.6-5.594L56.887,10.8a1.612,1.612,0,0,1,0,2.28Z" transform="translate(-39.946 0.001)" fill="#4f5e7b"/>
    </g>
  </g>
  <g id="Group_440" data-name="Group 440" transform="translate(0 14.673)">
    <g id="Group_439" data-name="Group 439" transform="translate(0)">
      <path id="Path_1720" data-name="Path 1720" d="M3.888,365.423c-.41-.613-.816-1.108-.833-1.128a.806.806,0,0,0-1.246,0c-.017.021-.423.516-.833,1.128a4.005,4.005,0,0,0-.922,2.165,2.378,2.378,0,1,0,4.757,0A4.005,4.005,0,0,0,3.888,365.423Zm-1.456,2.931a.766.766,0,0,1-.766-.764,3.4,3.4,0,0,1,.657-1.28l.109-.16.109.16a3.44,3.44,0,0,1,.657,1.279A.767.767,0,0,1,2.432,368.353Z" transform="translate(-0.054 -364)" fill="#4f5e7b"/>
    </g>
  </g>
</svg>
